<?xml version="1.0" encoding="UTF-8"?>
<svg xmlns="http://www.w3.org/2000/svg" xmlns:xlink="http://www.w3.org/1999/xlink" width="375pt" height="374.999991pt" viewBox="0 0 375 374.999991" version="1.2">
<g id="surface1">
<path style=" stroke:none;fill-rule:nonzero;fill:rgb(0.779724%,68.238831%,88.62915%);fill-opacity:1;" d="M 343.847656 93.445312 L 340.046875 93.445312 C 337.800781 85.554688 334.664062 77.984375 330.671875 70.824219 L 333.375 68.121094 C 336.464844 65.03125 338.167969 60.910156 338.167969 56.515625 C 338.167969 52.125 336.464844 48.003906 333.371094 44.910156 L 315.371094 26.929688 C 312.277344 23.816406 308.152344 22.105469 303.75 22.105469 C 299.347656 22.105469 295.222656 23.816406 292.144531 26.914062 L 289.445312 29.613281 C 282.28125 25.609375 274.707031 22.464844 266.820312 20.21875 L 266.820312 16.417969 C 266.824219 7.363281 259.457031 0 250.40625 0 L 224.953125 0 C 215.898438 0 208.535156 7.363281 208.535156 16.417969 L 208.535156 20.21875 C 200.648438 22.464844 193.070312 25.609375 185.894531 29.613281 L 183.207031 26.929688 C 180.113281 23.816406 175.988281 22.105469 171.585938 22.105469 C 167.183594 22.105469 163.058594 23.820312 159.984375 26.914062 L 141.984375 44.914062 C 138.890625 48.003906 137.191406 52.125 137.191406 56.519531 C 137.191406 60.910156 138.890625 65.03125 141.984375 68.121094 L 144.683594 70.824219 C 140.675781 78.003906 137.535156 85.578125 135.300781 93.445312 L 131.488281 93.445312 C 122.433594 93.445312 115.070312 100.8125 115.070312 109.863281 L 115.070312 135.339844 C 115.070312 144.390625 122.433594 151.757812 131.488281 151.757812 L 135.300781 151.757812 C 137.535156 159.625 140.675781 167.199219 144.683594 174.378906 L 141.984375 177.082031 C 138.890625 180.171875 137.191406 184.292969 137.191406 188.683594 C 137.191406 193.078125 138.890625 197.199219 141.980469 200.289062 L 159.96875 218.273438 C 163.058594 221.386719 167.183594 223.097656 171.585938 223.097656 C 175.988281 223.097656 180.113281 221.386719 183.191406 218.289062 L 185.890625 215.589844 C 193.078125 219.597656 200.65625 222.738281 208.535156 224.972656 L 208.535156 228.785156 C 208.535156 237.839844 215.898438 245.203125 224.953125 245.203125 L 250.402344 245.203125 C 259.457031 245.203125 266.820312 237.839844 266.820312 228.785156 L 266.820312 224.972656 C 274.703125 222.738281 282.273438 219.597656 289.445312 215.589844 L 292.128906 218.273438 C 295.222656 221.386719 299.347656 223.097656 303.75 223.097656 C 308.152344 223.097656 312.277344 221.382812 315.351562 218.292969 L 333.375 200.289062 C 336.464844 197.199219 338.164062 193.078125 338.164062 188.683594 C 338.164062 184.289062 336.464844 180.171875 333.375 177.082031 L 330.671875 174.378906 C 334.660156 167.21875 337.800781 159.648438 340.046875 151.757812 L 343.847656 151.757812 C 352.902344 151.757812 360.265625 144.390625 360.265625 135.339844 L 360.265625 109.863281 C 360.265625 100.8125 352.902344 93.445312 343.847656 93.445312 Z M 252.175781 228.785156 C 252.175781 229.746094 251.363281 230.554688 250.40625 230.554688 L 224.953125 230.554688 C 223.992188 230.554688 223.183594 229.746094 223.183594 228.785156 L 223.183594 173.101562 C 223.183594 170.039062 221.277344 167.300781 218.40625 166.238281 C 198.726562 158.9375 185.503906 139.996094 185.503906 119.101562 C 185.503906 102.546875 193.746094 87.023438 207.554688 77.585938 C 208.171875 77.164062 208.71875 76.820312 209.199219 76.535156 C 209.171875 77.488281 209.105469 78.394531 209.070312 78.863281 C 209.015625 79.609375 208.972656 80.195312 208.972656 80.777344 L 208.972656 115.34375 C 208.972656 131.210938 221.367188 144.460938 237.191406 145.511719 C 237.515625 145.53125 237.839844 145.53125 238.164062 145.511719 C 253.976562 144.460938 266.363281 131.210938 266.363281 115.34375 L 266.363281 80.777344 C 266.363281 80.199219 266.320312 79.613281 266.265625 78.875 C 266.230469 78.402344 266.164062 77.492188 266.140625 76.535156 C 266.617188 76.816406 267.160156 77.164062 267.777344 77.585938 C 281.589844 87.023438 289.832031 102.546875 289.832031 119.101562 C 289.832031 139.992188 276.617188 158.933594 256.949219 166.238281 C 254.078125 167.300781 252.171875 170.039062 252.171875 173.101562 L 252.171875 228.785156 Z M 345.617188 135.339844 C 345.617188 136.28125 344.792969 137.109375 343.847656 137.109375 L 334.363281 137.109375 C 330.941406 137.109375 327.972656 139.476562 327.21875 142.816406 C 324.898438 153.0625 320.882812 162.753906 315.277344 171.617188 C 313.449219 174.511719 313.871094 178.289062 316.289062 180.710938 L 323.019531 187.4375 C 323.453125 187.875 323.519531 188.40625 323.519531 188.683594 C 323.519531 188.960938 323.453125 189.496094 323.019531 189.929688 L 304.980469 207.945312 C 304.570312 208.363281 304.082031 208.449219 303.75 208.449219 C 303.417969 208.449219 302.929688 208.363281 302.503906 207.929688 L 295.777344 201.203125 C 293.351562 198.78125 289.570312 198.363281 286.675781 200.195312 C 280.425781 204.15625 273.769531 207.300781 266.824219 209.625 L 266.824219 177.976562 C 289.542969 167.398438 304.484375 144.355469 304.484375 119.101562 C 304.484375 97.703125 293.851562 77.660156 276.046875 65.492188 C 273.320312 63.628906 265.023438 57.957031 257.769531 62.132812 C 250.648438 66.234375 251.355469 75.847656 251.660156 79.953125 C 251.6875 80.308594 251.710938 80.609375 251.71875 80.777344 L 251.71875 115.34375 C 251.71875 123.363281 245.589844 130.082031 237.679688 130.855469 C 229.757812 130.082031 223.621094 123.359375 223.621094 115.34375 L 223.617188 80.832031 C 223.625 80.609375 223.652344 80.308594 223.679688 79.953125 C 223.984375 75.847656 224.699219 66.238281 217.582031 62.136719 C 210.328125 57.953125 202.023438 63.625 199.289062 65.492188 C 181.484375 77.664062 170.855469 97.703125 170.855469 119.101562 C 170.855469 144.359375 185.800781 167.40625 208.535156 177.976562 L 208.535156 209.625 C 201.585938 207.300781 194.921875 204.15625 188.652344 200.191406 C 187.445312 199.429688 186.089844 199.058594 184.742188 199.058594 C 182.847656 199.058594 180.972656 199.792969 179.558594 201.203125 L 172.820312 207.945312 C 172.40625 208.363281 171.921875 208.449219 171.585938 208.449219 C 171.253906 208.449219 170.769531 208.363281 170.339844 207.933594 L 152.339844 189.933594 C 151.902344 189.496094 151.839844 188.964844 151.839844 188.683594 C 151.839844 188.40625 151.902344 187.875 152.339844 187.4375 L 159.066406 180.710938 C 161.488281 178.289062 161.910156 174.511719 160.078125 171.617188 C 154.449219 162.707031 150.429688 153.019531 148.140625 142.828125 C 147.390625 139.484375 144.421875 137.105469 140.996094 137.105469 L 131.488281 137.105469 C 130.546875 137.105469 129.71875 136.28125 129.71875 135.335938 L 129.71875 109.863281 C 129.71875 108.902344 130.527344 108.09375 131.488281 108.09375 L 140.996094 108.09375 C 144.421875 108.09375 147.390625 105.71875 148.140625 102.375 C 150.429688 92.179688 154.445312 82.492188 160.078125 73.582031 C 161.910156 70.6875 161.488281 66.910156 159.066406 64.492188 L 152.339844 57.761719 C 151.902344 57.328125 151.839844 56.796875 151.839844 56.515625 C 151.839844 56.238281 151.902344 55.707031 152.339844 55.269531 L 170.355469 37.253906 C 170.769531 36.839844 171.253906 36.753906 171.585938 36.753906 C 171.921875 36.753906 172.40625 36.839844 172.832031 37.269531 L 179.558594 43.996094 C 181.984375 46.417969 185.757812 46.839844 188.652344 45.007812 C 197.550781 39.382812 207.25 35.359375 217.472656 33.046875 C 220.8125 32.292969 223.183594 29.328125 223.183594 25.90625 L 223.183594 16.417969 C 223.183594 15.457031 223.996094 14.648438 224.953125 14.648438 L 250.40625 14.648438 C 251.367188 14.648438 252.175781 15.457031 252.175781 16.417969 L 252.175781 25.90625 C 252.175781 29.328125 254.546875 32.296875 257.886719 33.050781 C 268.117188 35.359375 277.804688 39.382812 286.679688 45.007812 C 289.574219 46.839844 293.351562 46.421875 295.777344 44 L 302.519531 37.257812 C 302.933594 36.839844 303.417969 36.753906 303.75 36.753906 C 304.085938 36.753906 304.570312 36.839844 305 37.273438 L 323.019531 55.273438 C 323.457031 55.707031 323.519531 56.238281 323.519531 56.519531 C 323.519531 56.796875 323.457031 57.328125 323.019531 57.765625 L 316.292969 64.492188 C 313.871094 66.914062 313.449219 70.691406 315.28125 73.585938 C 320.882812 82.449219 324.902344 92.140625 327.21875 102.386719 C 327.976562 105.726562 330.941406 108.09375 334.363281 108.09375 L 343.851562 108.09375 C 344.808594 108.09375 345.621094 108.90625 345.621094 109.863281 L 345.621094 135.339844 Z M 345.617188 135.339844 "/>
<path style=" stroke:none;fill-rule:nonzero;fill:rgb(0.779724%,68.238831%,88.62915%);fill-opacity:1;" d="M 280.355469 322.492188 C 277.492188 325.351562 277.492188 329.988281 280.355469 332.851562 C 281.785156 334.28125 283.660156 334.996094 285.53125 334.996094 C 287.40625 334.996094 289.28125 334.28125 290.710938 332.851562 L 290.730469 332.832031 C 293.59375 329.96875 293.582031 325.34375 290.722656 322.484375 C 287.859375 319.621094 283.214844 319.632812 280.355469 322.492188 Z M 280.355469 322.492188 "/>
<path style=" stroke:none;fill-rule:nonzero;fill:rgb(0.779724%,68.238831%,88.62915%);fill-opacity:1;" d="M 314.28125 251.542969 L 256.136719 281.40625 C 251.207031 276.300781 244.300781 273.117188 236.660156 273.117188 L 196.820312 273.117188 C 194.589844 273.117188 194.046875 272.9375 194.007812 272.925781 C 193.6875 272.753906 192.664062 271.796875 191.847656 271.027344 L 191.484375 270.683594 C 159.25 240.34375 132.023438 242.265625 101.0625 254.484375 C 96.050781 256.460938 95.953125 256.46875 90.925781 256.683594 L 81.914062 256.6875 C 79.347656 248.945312 72.046875 243.34375 63.453125 243.34375 L 34.160156 243.34375 C 23.449219 243.34375 14.734375 252.066406 14.734375 262.792969 L 14.734375 339.671875 C 14.734375 350.382812 23.449219 359.097656 34.160156 359.097656 L 63.453125 359.097656 C 72.046875 359.097656 79.347656 353.503906 81.914062 345.769531 L 98.394531 345.769531 C 99.847656 345.769531 99.847656 345.769531 101.542969 346.246094 C 102.15625 346.421875 102.90625 346.632812 103.871094 346.890625 L 179.671875 367.171875 C 183.011719 368.074219 186.078125 368.960938 189.042969 369.820312 C 198.753906 372.632812 206.917969 375 215.425781 375 C 225.042969 375 235.097656 371.976562 248.320312 363.164062 C 248.386719 363.121094 248.449219 363.078125 248.511719 363.03125 L 262.984375 352.714844 C 266.277344 350.363281 267.042969 345.792969 264.695312 342.5 C 262.34375 339.203125 257.769531 338.4375 254.480469 340.789062 L 240.105469 351.039062 C 220.910156 363.800781 212.761719 361.441406 193.117188 355.75 C 190.089844 354.875 186.960938 353.96875 183.476562 353.023438 L 107.671875 332.746094 C 106.78125 332.507812 106.085938 332.308594 105.515625 332.148438 C 102.75 331.371094 101.714844 331.125 98.394531 331.125 L 82.902344 331.125 L 82.902344 271.34375 L 90.816406 271.34375 C 90.921875 271.34375 91.027344 271.339844 91.132812 271.335938 L 91.550781 271.316406 C 97.691406 271.054688 99.40625 270.886719 106.441406 268.113281 C 133.632812 257.378906 154.625 256.105469 181.453125 281.359375 L 181.816406 281.703125 C 186.398438 286.011719 189.039062 287.765625 196.824219 287.765625 L 236.664062 287.765625 C 241.339844 287.765625 245.414062 290.359375 247.539062 294.183594 C 247.5625 294.226562 247.589844 294.265625 247.613281 294.308594 C 248.5625 296.066406 249.101562 298.074219 249.101562 300.207031 C 249.101562 307.054688 243.523438 312.625 236.664062 312.625 L 172.097656 312.625 C 168.050781 312.625 164.773438 315.90625 164.773438 319.949219 C 164.773438 323.996094 168.050781 327.273438 172.097656 327.273438 L 236.664062 327.273438 C 251.601562 327.273438 263.75 315.132812 263.75 300.207031 C 263.75 298.175781 263.519531 296.203125 263.09375 294.300781 L 320.976562 264.578125 C 326.453125 261.765625 333.945312 262.066406 337.664062 268.101562 C 340.953125 273.421875 339.144531 280.492188 333.457031 284.546875 L 308.066406 302.628906 C 304.769531 304.976562 304.003906 309.546875 306.347656 312.84375 C 307.777344 314.847656 310.03125 315.917969 312.320312 315.917969 C 313.789062 315.917969 315.273438 315.476562 316.5625 314.5625 L 341.957031 296.476562 C 354.015625 287.878906 357.527344 272.367188 350.125 260.40625 C 342.851562 248.597656 327.441406 244.789062 314.28125 251.542969 Z M 68.253906 339.671875 C 68.253906 342.261719 66.054688 344.453125 63.453125 344.453125 L 34.160156 344.453125 C 31.570312 344.453125 29.382812 342.261719 29.382812 339.671875 L 29.382812 262.792969 C 29.382812 260.144531 31.527344 257.992188 34.160156 257.992188 L 63.453125 257.992188 C 66.054688 257.992188 68.253906 260.191406 68.253906 262.792969 Z M 68.253906 339.671875 "/>
</g>
</svg>
