<?xml version="1.0" encoding="UTF-8"?>
<svg xmlns="http://www.w3.org/2000/svg" xmlns:xlink="http://www.w3.org/1999/xlink" width="375pt" height="374.999991pt" viewBox="0 0 375 374.999991" version="1.2">
<g id="surface1">
<path style=" stroke:none;fill-rule:nonzero;fill:rgb(0.779724%,68.238831%,88.62915%);fill-opacity:1;" d="M 310.546875 0 L 64.453125 0 C 48.300781 0 35.15625 13.140625 35.15625 29.296875 L 35.15625 345.703125 C 35.15625 361.855469 48.300781 375 64.453125 375 L 310.546875 375 C 326.699219 375 339.84375 361.855469 339.84375 345.703125 L 339.84375 29.296875 C 339.84375 13.140625 326.699219 0 310.546875 0 Z M 328.125 345.703125 C 328.125 355.394531 320.238281 363.28125 310.546875 363.28125 L 64.453125 363.28125 C 54.761719 363.28125 46.875 355.394531 46.875 345.703125 L 46.875 29.296875 C 46.875 19.605469 54.761719 11.71875 64.453125 11.71875 L 310.546875 11.71875 C 320.238281 11.71875 328.125 19.605469 328.125 29.296875 Z M 328.125 345.703125 "/>
<path style=" stroke:none;fill-rule:nonzero;fill:rgb(0.779724%,68.238831%,88.62915%);fill-opacity:1;" d="M 152.34375 76.171875 L 257.8125 76.171875 C 261.046875 76.171875 263.671875 73.546875 263.671875 70.3125 C 263.671875 67.078125 261.046875 64.453125 257.8125 64.453125 L 152.34375 64.453125 C 149.109375 64.453125 146.484375 67.078125 146.484375 70.3125 C 146.484375 73.546875 149.109375 76.171875 152.34375 76.171875 Z M 152.34375 76.171875 "/>
<path style=" stroke:none;fill-rule:nonzero;fill:rgb(0.779724%,68.238831%,88.62915%);fill-opacity:1;" d="M 298.828125 87.890625 L 152.34375 87.890625 C 149.109375 87.890625 146.484375 90.515625 146.484375 93.75 C 146.484375 96.984375 149.109375 99.609375 152.34375 99.609375 L 298.828125 99.609375 C 302.0625 99.609375 304.6875 96.984375 304.6875 93.75 C 304.6875 90.515625 302.0625 87.890625 298.828125 87.890625 Z M 298.828125 87.890625 "/>
<path style=" stroke:none;fill-rule:nonzero;fill:rgb(0.779724%,68.238831%,88.62915%);fill-opacity:1;" d="M 152.34375 123.046875 L 281.25 123.046875 C 284.484375 123.046875 287.109375 120.421875 287.109375 117.1875 C 287.109375 113.953125 284.484375 111.328125 281.25 111.328125 L 152.34375 111.328125 C 149.109375 111.328125 146.484375 113.953125 146.484375 117.1875 C 146.484375 120.421875 149.109375 123.046875 152.34375 123.046875 Z M 152.34375 123.046875 "/>
<path style=" stroke:none;fill-rule:nonzero;fill:rgb(0.779724%,68.238831%,88.62915%);fill-opacity:1;" d="M 123.046875 251.953125 L 76.171875 251.953125 C 72.9375 251.953125 70.3125 254.578125 70.3125 257.8125 L 70.3125 304.6875 C 70.3125 307.921875 72.9375 310.546875 76.171875 310.546875 L 123.046875 310.546875 C 126.28125 310.546875 128.90625 307.921875 128.90625 304.6875 L 128.90625 257.8125 C 128.90625 254.578125 126.28125 251.953125 123.046875 251.953125 Z M 117.1875 298.828125 L 82.03125 298.828125 L 82.03125 263.671875 L 117.1875 263.671875 Z M 117.1875 298.828125 "/>
<path style=" stroke:none;fill-rule:nonzero;fill:rgb(0.779724%,68.238831%,88.62915%);fill-opacity:1;" d="M 152.34375 263.671875 L 257.8125 263.671875 C 261.046875 263.671875 263.671875 261.046875 263.671875 257.8125 C 263.671875 254.578125 261.046875 251.953125 257.8125 251.953125 L 152.34375 251.953125 C 149.109375 251.953125 146.484375 254.578125 146.484375 257.8125 C 146.484375 261.046875 149.109375 263.671875 152.34375 263.671875 Z M 152.34375 263.671875 "/>
<path style=" stroke:none;fill-rule:nonzero;fill:rgb(0.779724%,68.238831%,88.62915%);fill-opacity:1;" d="M 298.828125 275.390625 L 152.34375 275.390625 C 149.109375 275.390625 146.484375 278.015625 146.484375 281.25 C 146.484375 284.484375 149.109375 287.109375 152.34375 287.109375 L 298.828125 287.109375 C 302.0625 287.109375 304.6875 284.484375 304.6875 281.25 C 304.6875 278.015625 302.0625 275.390625 298.828125 275.390625 Z M 298.828125 275.390625 "/>
<path style=" stroke:none;fill-rule:nonzero;fill:rgb(0.779724%,68.238831%,88.62915%);fill-opacity:1;" d="M 281.25 298.828125 L 152.34375 298.828125 C 149.109375 298.828125 146.484375 301.453125 146.484375 304.6875 C 146.484375 307.921875 149.109375 310.546875 152.34375 310.546875 L 281.25 310.546875 C 284.484375 310.546875 287.109375 307.921875 287.109375 304.6875 C 287.109375 301.453125 284.484375 298.828125 281.25 298.828125 Z M 281.25 298.828125 "/>
<path style=" stroke:none;fill-rule:nonzero;fill:rgb(0.779724%,68.238831%,88.62915%);fill-opacity:1;" d="M 123.046875 158.203125 L 76.171875 158.203125 C 72.9375 158.203125 70.3125 160.828125 70.3125 164.0625 L 70.3125 210.9375 C 70.3125 214.171875 72.9375 216.796875 76.171875 216.796875 L 123.046875 216.796875 C 126.28125 216.796875 128.90625 214.171875 128.90625 210.9375 L 128.90625 164.0625 C 128.90625 160.828125 126.28125 158.203125 123.046875 158.203125 Z M 117.1875 205.078125 L 82.03125 205.078125 L 82.03125 169.921875 L 117.1875 169.921875 Z M 117.1875 205.078125 "/>
<path style=" stroke:none;fill-rule:nonzero;fill:rgb(0.779724%,68.238831%,88.62915%);fill-opacity:1;" d="M 152.34375 169.921875 L 257.8125 169.921875 C 261.046875 169.921875 263.671875 167.296875 263.671875 164.0625 C 263.671875 160.828125 261.046875 158.203125 257.8125 158.203125 L 152.34375 158.203125 C 149.109375 158.203125 146.484375 160.828125 146.484375 164.0625 C 146.484375 167.296875 149.109375 169.921875 152.34375 169.921875 Z M 152.34375 169.921875 "/>
<path style=" stroke:none;fill-rule:nonzero;fill:rgb(0.779724%,68.238831%,88.62915%);fill-opacity:1;" d="M 298.828125 181.640625 L 152.34375 181.640625 C 149.109375 181.640625 146.484375 184.265625 146.484375 187.5 C 146.484375 190.734375 149.109375 193.359375 152.34375 193.359375 L 298.828125 193.359375 C 302.0625 193.359375 304.6875 190.734375 304.6875 187.5 C 304.6875 184.265625 302.0625 181.640625 298.828125 181.640625 Z M 298.828125 181.640625 "/>
<path style=" stroke:none;fill-rule:nonzero;fill:rgb(0.779724%,68.238831%,88.62915%);fill-opacity:1;" d="M 152.34375 216.796875 L 281.25 216.796875 C 284.484375 216.796875 287.109375 214.171875 287.109375 210.9375 C 287.109375 207.703125 284.484375 205.078125 281.25 205.078125 L 152.34375 205.078125 C 149.109375 205.078125 146.484375 207.703125 146.484375 210.9375 C 146.484375 214.171875 149.109375 216.796875 152.34375 216.796875 Z M 152.34375 216.796875 "/>
<path style=" stroke:none;fill-rule:nonzero;fill:rgb(0.779724%,68.238831%,88.62915%);fill-opacity:1;" d="M 130.621094 54.449219 L 120.621094 64.453125 L 93.75 64.453125 C 90.515625 64.453125 87.890625 67.078125 87.890625 70.3125 C 87.890625 73.546875 90.515625 76.171875 93.75 76.171875 L 108.902344 76.171875 L 93.75 91.324219 L 74.457031 72.027344 C 72.167969 69.742188 68.457031 69.742188 66.167969 72.027344 C 63.882812 74.316406 63.882812 78.027344 66.167969 80.316406 L 70.3125 84.457031 L 70.3125 117.1875 C 70.3125 120.421875 72.9375 123.046875 76.171875 123.046875 L 123.046875 123.046875 C 126.28125 123.046875 128.90625 120.421875 128.90625 117.1875 L 128.90625 99.609375 C 128.90625 96.371094 126.28125 93.75 123.046875 93.75 C 119.8125 93.75 117.1875 96.371094 117.1875 99.609375 L 117.1875 111.328125 L 82.03125 111.328125 L 82.03125 96.175781 L 89.605469 103.753906 C 90.75 104.898438 92.25 105.46875 93.75 105.46875 C 95.25 105.46875 96.75 104.898438 97.894531 103.753906 L 138.910156 62.738281 C 141.199219 60.449219 141.199219 56.738281 138.910156 54.449219 C 136.621094 52.164062 132.910156 52.164062 130.621094 54.449219 Z M 130.621094 54.449219 "/>
</g>
</svg>
