<?xml version="1.0" encoding="UTF-8"?>
<svg xmlns="http://www.w3.org/2000/svg" xmlns:xlink="http://www.w3.org/1999/xlink" width="375pt" height="374.999991pt" viewBox="0 0 375 374.999991" version="1.2">
<g id="surface1">
<path style=" stroke:none;fill-rule:nonzero;fill:rgb(0.779724%,68.238831%,88.62915%);fill-opacity:1;" d="M 300.542969 13.433594 L 284.683594 29.296875 L 263.671875 29.296875 C 263.289062 29.296875 262.90625 29.335938 262.527344 29.410156 C 262.152344 29.484375 261.785156 29.597656 261.429688 29.742188 C 261.074219 29.890625 260.738281 30.070312 260.417969 30.285156 C 260.097656 30.5 259.800781 30.742188 259.527344 31.011719 C 259.257812 31.285156 259.015625 31.582031 258.800781 31.902344 C 258.585938 32.222656 258.40625 32.558594 258.257812 32.914062 C 258.109375 33.269531 258 33.636719 257.925781 34.011719 C 257.851562 34.390625 257.8125 34.773438 257.8125 35.15625 L 257.8125 56.167969 L 237.808594 76.171875 L 216.796875 76.171875 C 216.414062 76.171875 216.03125 76.210938 215.652344 76.285156 C 215.277344 76.359375 214.910156 76.472656 214.554688 76.617188 C 214.199219 76.765625 213.863281 76.945312 213.542969 77.160156 C 213.222656 77.375 212.925781 77.617188 212.652344 77.886719 C 212.382812 78.160156 212.140625 78.457031 211.925781 78.777344 C 211.710938 79.097656 211.53125 79.433594 211.382812 79.789062 C 211.234375 80.144531 211.125 80.511719 211.050781 80.886719 C 210.976562 81.265625 210.9375 81.648438 210.9375 82.03125 L 210.9375 103.042969 L 190.933594 123.046875 L 169.921875 123.046875 C 169.539062 123.046875 169.15625 123.085938 168.777344 123.160156 C 168.402344 123.234375 168.035156 123.347656 167.679688 123.492188 C 167.324219 123.640625 166.988281 123.820312 166.667969 124.035156 C 166.347656 124.25 166.050781 124.492188 165.777344 124.761719 C 165.507812 125.035156 165.265625 125.332031 165.050781 125.652344 C 164.835938 125.972656 164.65625 126.308594 164.507812 126.664062 C 164.359375 127.019531 164.25 127.386719 164.175781 127.761719 C 164.101562 128.140625 164.0625 128.523438 164.0625 128.90625 L 164.0625 149.917969 L 138.199219 175.78125 L 118.164062 175.78125 C 118.570312 173.367188 119.097656 170.976562 119.753906 168.617188 C 120.40625 166.257812 121.183594 163.9375 122.082031 161.660156 C 122.976562 159.382812 123.992188 157.15625 125.125 154.984375 C 126.253906 152.8125 127.496094 150.703125 128.847656 148.660156 C 130.199219 146.621094 131.65625 144.652344 133.214844 142.765625 C 134.773438 140.875 136.425781 139.070312 138.171875 137.355469 C 139.917969 135.640625 141.75 134.019531 143.667969 132.496094 C 145.585938 130.972656 147.578125 129.550781 149.644531 128.238281 L 143.324219 118.367188 C 141.472656 119.554688 139.667969 120.808594 137.917969 122.140625 C 136.164062 123.46875 134.46875 124.867188 132.828125 126.332031 C 131.1875 127.800781 129.609375 129.328125 128.09375 130.921875 C 126.574219 132.515625 125.125 134.167969 123.742188 135.878906 C 122.355469 137.585938 121.042969 139.351562 119.800781 141.164062 C 118.558594 142.980469 117.390625 144.84375 116.300781 146.753906 C 115.207031 148.660156 114.191406 150.613281 113.257812 152.601562 C 112.320312 154.59375 111.46875 156.621094 110.695312 158.679688 C 109.921875 160.738281 109.234375 162.824219 108.628906 164.941406 C 108.023438 167.054688 107.503906 169.191406 107.074219 171.347656 C 106.640625 173.503906 106.292969 175.675781 106.035156 177.859375 C 105.777344 180.046875 105.609375 182.238281 105.527344 184.433594 C 105.445312 186.632812 105.449219 188.832031 105.546875 191.03125 C 105.640625 193.226562 105.824219 195.417969 106.09375 197.601562 C 106.363281 199.785156 106.722656 201.953125 107.167969 204.105469 C 107.613281 206.261719 108.144531 208.394531 108.761719 210.503906 C 109.378906 212.617188 110.082031 214.699219 110.867188 216.753906 C 111.648438 218.8125 112.515625 220.832031 113.464844 222.816406 C 114.410156 224.800781 115.4375 226.746094 116.539062 228.648438 C 117.644531 230.554688 118.824219 232.410156 120.074219 234.214844 C 121.328125 236.023438 122.652344 237.78125 124.046875 239.480469 C 125.441406 241.183594 126.898438 242.828125 128.425781 244.410156 C 129.953125 245.996094 131.539062 247.515625 133.1875 248.972656 C 134.835938 250.429688 136.542969 251.816406 138.300781 253.136719 C 140.0625 254.457031 141.871094 255.703125 143.730469 256.875 C 145.59375 258.050781 147.496094 259.148438 149.445312 260.167969 C 151.394531 261.1875 153.378906 262.128906 155.40625 262.992188 C 157.429688 263.851562 159.484375 264.628906 161.570312 265.324219 C 163.660156 266.019531 165.769531 266.628906 167.90625 267.15625 C 170.042969 267.683594 172.195312 268.121094 174.367188 268.472656 C 176.539062 268.824219 178.71875 269.089844 180.910156 269.265625 C 183.105469 269.441406 185.300781 269.53125 187.5 269.53125 L 262.757812 269.53125 C 260.21875 271.859375 257.578125 274.066406 254.832031 276.148438 C 252.085938 278.234375 249.253906 280.1875 246.328125 282.007812 C 243.402344 283.828125 240.398438 285.507812 237.316406 287.050781 C 234.234375 288.59375 231.089844 289.988281 227.878906 291.238281 C 224.667969 292.488281 221.402344 293.585938 218.089844 294.535156 C 214.777344 295.480469 211.429688 296.273438 208.042969 296.910156 C 204.65625 297.546875 201.246094 298.027344 197.816406 298.347656 C 194.382812 298.667969 190.945312 298.828125 187.5 298.828125 C 126.113281 298.828125 76.171875 248.886719 76.171875 187.5 L 64.453125 187.5 C 64.449219 197.40625 65.628906 207.171875 67.988281 216.796875 L 23.4375 216.796875 L 23.4375 158.203125 L 70.3125 158.203125 C 70.890625 158.203125 71.457031 158.117188 72.011719 157.949219 C 72.566406 157.78125 73.085938 157.539062 73.566406 157.214844 C 74.050781 156.894531 74.472656 156.507812 74.839844 156.0625 C 75.210938 155.613281 75.503906 155.121094 75.726562 154.585938 L 85.191406 131.738281 C 85.410156 131.203125 85.550781 130.644531 85.609375 130.070312 C 85.664062 129.492188 85.636719 128.921875 85.523438 128.351562 C 85.410156 127.785156 85.21875 127.242188 84.945312 126.734375 C 84.671875 126.222656 84.328125 125.761719 83.921875 125.351562 L 50.773438 92.207031 L 92.207031 50.773438 L 125.351562 83.921875 C 125.761719 84.328125 126.222656 84.671875 126.734375 84.945312 C 127.242188 85.21875 127.785156 85.410156 128.351562 85.523438 C 128.921875 85.636719 129.492188 85.664062 130.070312 85.609375 C 130.644531 85.550781 131.203125 85.410156 131.738281 85.191406 L 154.585938 75.726562 C 155.121094 75.503906 155.613281 75.210938 156.0625 74.839844 C 156.507812 74.472656 156.894531 74.050781 157.214844 73.566406 C 157.539062 73.085938 157.78125 72.566406 157.949219 72.011719 C 158.117188 71.457031 158.203125 70.890625 158.203125 70.3125 L 158.203125 23.4375 L 216.796875 23.4375 L 216.796875 58.59375 L 228.515625 58.59375 L 228.515625 17.578125 C 228.515625 17.195312 228.476562 16.8125 228.402344 16.433594 C 228.328125 16.058594 228.214844 15.691406 228.070312 15.335938 C 227.921875 14.980469 227.742188 14.644531 227.527344 14.324219 C 227.3125 14.003906 227.070312 13.707031 226.800781 13.433594 C 226.527344 13.164062 226.230469 12.921875 225.910156 12.707031 C 225.589844 12.492188 225.253906 12.3125 224.898438 12.164062 C 224.542969 12.015625 224.175781 11.90625 223.800781 11.832031 C 223.421875 11.757812 223.039062 11.71875 222.65625 11.71875 L 152.34375 11.71875 C 151.960938 11.71875 151.578125 11.757812 151.199219 11.832031 C 150.824219 11.90625 150.457031 12.019531 150.101562 12.164062 C 149.746094 12.3125 149.410156 12.492188 149.089844 12.707031 C 148.769531 12.921875 148.472656 13.164062 148.199219 13.433594 C 147.929688 13.707031 147.6875 14.003906 147.472656 14.324219 C 147.257812 14.644531 147.078125 14.980469 146.929688 15.335938 C 146.78125 15.691406 146.671875 16.058594 146.597656 16.433594 C 146.523438 16.8125 146.484375 17.195312 146.484375 17.578125 L 146.484375 66.398438 L 130.871094 72.863281 L 96.351562 38.34375 C 96.078125 38.070312 95.78125 37.828125 95.460938 37.617188 C 95.140625 37.402344 94.804688 37.222656 94.449219 37.074219 C 94.09375 36.925781 93.726562 36.816406 93.347656 36.742188 C 92.972656 36.664062 92.589844 36.628906 92.207031 36.628906 C 91.820312 36.628906 91.441406 36.664062 91.0625 36.742188 C 90.6875 36.816406 90.320312 36.925781 89.964844 37.074219 C 89.609375 37.222656 89.269531 37.402344 88.949219 37.617188 C 88.632812 37.828125 88.335938 38.070312 88.0625 38.34375 L 38.34375 88.0625 C 38.070312 88.335938 37.828125 88.632812 37.617188 88.949219 C 37.402344 89.269531 37.222656 89.609375 37.074219 89.964844 C 36.925781 90.320312 36.816406 90.6875 36.742188 91.0625 C 36.664062 91.441406 36.628906 91.820312 36.628906 92.207031 C 36.628906 92.589844 36.664062 92.972656 36.742188 93.347656 C 36.816406 93.726562 36.925781 94.09375 37.074219 94.449219 C 37.222656 94.804688 37.402344 95.140625 37.617188 95.460938 C 37.828125 95.78125 38.070312 96.078125 38.34375 96.351562 L 72.867188 130.871094 L 66.398438 146.484375 L 17.578125 146.484375 C 17.195312 146.484375 16.8125 146.523438 16.433594 146.597656 C 16.058594 146.671875 15.691406 146.785156 15.335938 146.929688 C 14.980469 147.078125 14.644531 147.257812 14.324219 147.472656 C 14.003906 147.6875 13.707031 147.929688 13.433594 148.199219 C 13.164062 148.472656 12.921875 148.769531 12.707031 149.089844 C 12.492188 149.410156 12.3125 149.746094 12.164062 150.101562 C 12.015625 150.457031 11.90625 150.824219 11.832031 151.199219 C 11.757812 151.578125 11.71875 151.960938 11.71875 152.34375 L 11.71875 222.65625 C 11.71875 223.039062 11.757812 223.421875 11.832031 223.800781 C 11.90625 224.175781 12.019531 224.542969 12.164062 224.898438 C 12.3125 225.253906 12.492188 225.589844 12.707031 225.910156 C 12.921875 226.230469 13.164062 226.527344 13.433594 226.800781 C 13.707031 227.070312 14.003906 227.3125 14.324219 227.527344 C 14.644531 227.742188 14.980469 227.921875 15.335938 228.070312 C 15.691406 228.21875 16.058594 228.328125 16.433594 228.402344 C 16.8125 228.476562 17.195312 228.515625 17.578125 228.515625 L 66.398438 228.515625 L 72.863281 244.128906 L 38.34375 278.648438 C 38.070312 278.921875 37.828125 279.21875 37.617188 279.539062 C 37.402344 279.859375 37.222656 280.195312 37.074219 280.550781 C 36.925781 280.90625 36.816406 281.273438 36.742188 281.648438 C 36.664062 282.027344 36.628906 282.410156 36.628906 282.792969 C 36.628906 283.179688 36.664062 283.558594 36.742188 283.9375 C 36.816406 284.3125 36.925781 284.679688 37.074219 285.035156 C 37.222656 285.390625 37.402344 285.730469 37.617188 286.050781 C 37.828125 286.367188 38.070312 286.664062 38.34375 286.9375 L 88.0625 336.65625 C 88.335938 336.929688 88.632812 337.171875 88.949219 337.382812 C 89.269531 337.597656 89.609375 337.777344 89.964844 337.925781 C 90.320312 338.074219 90.6875 338.183594 91.0625 338.257812 C 91.441406 338.335938 91.820312 338.371094 92.207031 338.371094 C 92.589844 338.371094 92.972656 338.335938 93.347656 338.257812 C 93.726562 338.183594 94.09375 338.074219 94.449219 337.925781 C 94.804688 337.777344 95.140625 337.597656 95.460938 337.382812 C 95.78125 337.171875 96.078125 336.929688 96.351562 336.65625 L 130.871094 302.132812 L 146.484375 308.601562 L 146.484375 357.421875 C 146.484375 357.804688 146.523438 358.1875 146.597656 358.566406 C 146.671875 358.941406 146.785156 359.308594 146.929688 359.664062 C 147.078125 360.019531 147.257812 360.355469 147.472656 360.675781 C 147.6875 360.996094 147.929688 361.292969 148.199219 361.566406 C 148.472656 361.835938 148.769531 362.078125 149.089844 362.292969 C 149.410156 362.507812 149.746094 362.6875 150.101562 362.835938 C 150.457031 362.984375 150.824219 363.09375 151.199219 363.167969 C 151.578125 363.242188 151.960938 363.28125 152.34375 363.28125 L 222.65625 363.28125 C 223.039062 363.28125 223.421875 363.242188 223.800781 363.167969 C 224.175781 363.09375 224.542969 362.980469 224.898438 362.835938 C 225.253906 362.6875 225.589844 362.507812 225.910156 362.292969 C 226.230469 362.078125 226.527344 361.835938 226.800781 361.566406 C 227.070312 361.292969 227.3125 360.996094 227.527344 360.675781 C 227.742188 360.355469 227.921875 360.019531 228.070312 359.664062 C 228.21875 359.308594 228.328125 358.941406 228.402344 358.566406 C 228.476562 358.1875 228.515625 357.804688 228.515625 357.421875 L 228.515625 308.601562 L 244.128906 302.132812 L 278.648438 336.65625 C 278.921875 336.929688 279.21875 337.171875 279.539062 337.382812 C 279.859375 337.597656 280.195312 337.777344 280.550781 337.925781 C 280.90625 338.074219 281.273438 338.183594 281.648438 338.257812 C 282.027344 338.335938 282.410156 338.371094 282.792969 338.371094 C 283.179688 338.371094 283.558594 338.335938 283.9375 338.257812 C 284.3125 338.183594 284.679688 338.074219 285.035156 337.925781 C 285.390625 337.777344 285.730469 337.597656 286.050781 337.382812 C 286.367188 337.171875 286.664062 336.929688 286.9375 336.65625 L 336.65625 286.9375 C 336.929688 286.664062 337.171875 286.367188 337.382812 286.050781 C 337.597656 285.730469 337.777344 285.390625 337.925781 285.035156 C 338.074219 284.679688 338.183594 284.3125 338.257812 283.9375 C 338.335938 283.558594 338.371094 283.179688 338.371094 282.792969 C 338.371094 282.410156 338.335938 282.027344 338.257812 281.648438 C 338.183594 281.273438 338.074219 280.90625 337.925781 280.550781 C 337.777344 280.195312 337.597656 279.859375 337.382812 279.539062 C 337.171875 279.21875 336.925781 278.921875 336.65625 278.648438 L 327.535156 269.53125 L 357.421875 269.53125 C 357.804688 269.53125 358.1875 269.492188 358.566406 269.417969 C 358.941406 269.34375 359.308594 269.230469 359.664062 269.085938 C 360.019531 268.9375 360.355469 268.757812 360.675781 268.542969 C 360.996094 268.328125 361.292969 268.085938 361.566406 267.816406 C 361.835938 267.542969 362.078125 267.246094 362.292969 266.925781 C 362.507812 266.605469 362.6875 266.269531 362.835938 265.914062 C 362.984375 265.558594 363.09375 265.191406 363.167969 264.816406 C 363.242188 264.4375 363.28125 264.054688 363.28125 263.671875 L 363.28125 64.453125 C 363.28125 64.070312 363.242188 63.6875 363.167969 63.308594 C 363.09375 62.933594 362.980469 62.566406 362.835938 62.210938 C 362.6875 61.855469 362.507812 61.519531 362.292969 61.199219 C 362.078125 60.878906 361.835938 60.582031 361.566406 60.308594 C 361.292969 60.039062 360.996094 59.796875 360.675781 59.582031 C 360.355469 59.367188 360.019531 59.1875 359.664062 59.039062 C 359.308594 58.890625 358.941406 58.78125 358.566406 58.707031 C 358.1875 58.632812 357.804688 58.59375 357.421875 58.59375 L 310.546875 58.59375 C 310.160156 58.59375 309.78125 58.632812 309.402344 58.707031 C 309.027344 58.78125 308.660156 58.894531 308.304688 59.039062 C 307.949219 59.1875 307.613281 59.367188 307.292969 59.582031 C 306.972656 59.796875 306.675781 60.039062 306.402344 60.308594 C 306.132812 60.582031 305.890625 60.878906 305.675781 61.199219 C 305.460938 61.519531 305.28125 61.855469 305.132812 62.210938 C 304.984375 62.566406 304.875 62.933594 304.800781 63.308594 C 304.726562 63.6875 304.6875 64.070312 304.6875 64.453125 L 304.6875 105.46875 L 263.671875 105.46875 C 263.289062 105.46875 262.90625 105.507812 262.527344 105.582031 C 262.152344 105.65625 261.785156 105.769531 261.429688 105.914062 C 261.074219 106.0625 260.738281 106.242188 260.417969 106.457031 C 260.097656 106.671875 259.800781 106.914062 259.527344 107.183594 C 259.257812 107.457031 259.015625 107.753906 258.800781 108.074219 C 258.585938 108.394531 258.40625 108.730469 258.257812 109.085938 C 258.109375 109.441406 258 109.808594 257.925781 110.183594 C 257.851562 110.5625 257.8125 110.945312 257.8125 111.328125 L 257.8125 140.625 L 216.796875 140.625 C 216.414062 140.625 216.03125 140.664062 215.652344 140.738281 C 215.277344 140.8125 214.910156 140.925781 214.554688 141.070312 C 214.199219 141.21875 213.863281 141.398438 213.542969 141.613281 C 213.222656 141.828125 212.925781 142.070312 212.652344 142.339844 C 212.382812 142.613281 212.136719 142.910156 211.925781 143.230469 C 211.710938 143.550781 211.53125 143.886719 211.382812 144.242188 C 211.234375 144.597656 211.125 144.964844 211.050781 145.339844 C 210.976562 145.71875 210.9375 146.101562 210.9375 146.484375 L 210.9375 181.640625 L 169.921875 181.640625 C 169.539062 181.640625 169.15625 181.679688 168.777344 181.753906 C 168.402344 181.828125 168.035156 181.941406 167.679688 182.085938 C 167.324219 182.234375 166.988281 182.414062 166.667969 182.628906 C 166.347656 182.84375 166.050781 183.085938 165.777344 183.355469 C 165.507812 183.628906 165.265625 183.925781 165.050781 184.246094 C 164.835938 184.566406 164.65625 184.902344 164.507812 185.257812 C 164.359375 185.613281 164.25 185.980469 164.175781 186.355469 C 164.101562 186.734375 164.0625 187.117188 164.0625 187.5 L 164.0625 210.9375 L 121.210938 210.9375 C 118.523438 203.355469 117.179688 195.542969 117.1875 187.5 L 140.625 187.5 C 141.402344 187.5 142.148438 187.351562 142.867188 187.054688 C 143.585938 186.757812 144.21875 186.332031 144.769531 185.785156 L 172.347656 158.203125 L 193.359375 158.203125 C 193.742188 158.203125 194.125 158.164062 194.503906 158.089844 C 194.878906 158.015625 195.246094 157.902344 195.601562 157.757812 C 195.957031 157.609375 196.292969 157.429688 196.613281 157.214844 C 196.933594 157 197.230469 156.757812 197.503906 156.488281 C 197.773438 156.214844 198.015625 155.917969 198.230469 155.597656 C 198.445312 155.277344 198.625 154.941406 198.773438 154.585938 C 198.921875 154.230469 199.03125 153.863281 199.105469 153.488281 C 199.179688 153.109375 199.21875 152.726562 199.21875 152.34375 L 199.21875 131.332031 L 219.222656 111.328125 L 240.234375 111.328125 C 240.617188 111.328125 241 111.289062 241.378906 111.214844 C 241.753906 111.140625 242.121094 111.027344 242.476562 110.882812 C 242.832031 110.734375 243.167969 110.554688 243.488281 110.339844 C 243.808594 110.125 244.105469 109.882812 244.378906 109.613281 C 244.648438 109.339844 244.890625 109.042969 245.105469 108.722656 C 245.320312 108.402344 245.5 108.066406 245.648438 107.710938 C 245.796875 107.355469 245.90625 106.988281 245.980469 106.613281 C 246.054688 106.234375 246.09375 105.851562 246.09375 105.46875 L 246.09375 84.457031 L 266.097656 64.453125 L 287.109375 64.453125 C 287.492188 64.453125 287.875 64.414062 288.253906 64.339844 C 288.628906 64.265625 288.996094 64.152344 289.351562 64.007812 C 289.707031 63.859375 290.042969 63.679688 290.363281 63.464844 C 290.683594 63.25 290.980469 63.007812 291.253906 62.738281 C 291.523438 62.464844 291.765625 62.167969 291.980469 61.847656 C 292.195312 61.527344 292.375 61.191406 292.523438 60.835938 C 292.671875 60.480469 292.78125 60.113281 292.855469 59.738281 C 292.929688 59.359375 292.96875 58.976562 292.96875 58.59375 L 292.96875 37.582031 L 307.113281 23.4375 L 363.28125 23.4375 L 363.28125 11.71875 L 304.6875 11.71875 C 303.910156 11.71875 303.164062 11.867188 302.445312 12.164062 C 301.726562 12.460938 301.09375 12.886719 300.542969 13.433594 Z M 92.207031 324.226562 L 50.773438 282.792969 L 82.300781 251.269531 C 87.453125 259.730469 93.527344 267.460938 100.535156 274.464844 C 107.539062 281.472656 115.269531 287.546875 123.730469 292.699219 Z M 158.203125 351.5625 L 158.203125 307.011719 C 167.828125 309.371094 177.59375 310.546875 187.5 310.546875 C 197.410156 310.546875 207.175781 309.363281 216.796875 307.003906 L 216.796875 351.5625 Z M 324.226562 282.792969 L 282.792969 324.226562 L 251.277344 292.707031 C 261.738281 286.371094 271.046875 278.644531 279.203125 269.53125 L 310.964844 269.53125 Z M 316.40625 70.3125 L 351.5625 70.3125 L 351.5625 257.8125 L 316.40625 257.8125 Z M 269.53125 117.1875 L 304.6875 117.1875 L 304.6875 257.8125 L 269.53125 257.8125 Z M 222.65625 152.34375 L 257.8125 152.34375 L 257.8125 257.8125 L 222.65625 257.8125 Z M 175.78125 193.359375 L 210.9375 193.359375 L 210.9375 257.8125 L 187.5 257.8125 C 183.566406 257.8125 179.660156 257.484375 175.78125 256.832031 Z M 164.0625 222.65625 L 164.0625 253.789062 C 160.148438 252.398438 156.390625 250.671875 152.78125 248.617188 C 149.171875 246.558594 145.773438 244.203125 142.578125 241.546875 C 139.386719 238.894531 136.449219 235.976562 133.769531 232.804688 C 131.089844 229.632812 128.710938 226.25 126.625 222.65625 Z M 187.5 146.484375 L 175.78125 146.484375 L 175.78125 134.765625 L 187.5 134.765625 Z M 234.375 99.609375 L 222.65625 99.609375 L 222.65625 87.890625 L 234.375 87.890625 Z M 281.25 52.734375 L 269.53125 52.734375 L 269.53125 41.015625 L 281.25 41.015625 Z M 281.25 52.734375 "/>
</g>
</svg>
