<?xml version="1.0" encoding="UTF-8"?>
<svg xmlns="http://www.w3.org/2000/svg" xmlns:xlink="http://www.w3.org/1999/xlink" width="375pt" height="374.999991pt" viewBox="0 0 375 374.999991" version="1.2">
<g id="surface1">
<path style=" stroke:none;fill-rule:nonzero;fill:rgb(0.779724%,68.238831%,88.62915%);fill-opacity:1;" d="M 369.507812 36.394531 L 198.3125 36.394531 L 198.3125 5.492188 C 198.3125 2.460938 195.855469 0 192.820312 0 L 158.546875 0 C 155.515625 0 153.054688 2.460938 153.054688 5.492188 L 153.054688 36.394531 L 85.832031 36.394531 C 82.796875 36.394531 80.339844 38.855469 80.339844 41.886719 L 80.339844 89.117188 C 76.714844 91.046875 73.277344 93.589844 70.382812 96.511719 L 70.382812 80.367188 C 70.382812 70.410156 60.476562 62.230469 45.742188 59.515625 L 45.742188 47.59375 C 45.742188 44.558594 43.28125 42.097656 40.246094 42.097656 C 30.523438 42.097656 20.632812 45.835938 13.121094 52.355469 C 4.660156 59.695312 0 69.882812 0 81.039062 L 0 104.054688 C 0 111.15625 10.988281 111.15625 10.988281 104.054688 L 10.988281 81.039062 C 10.988281 69.015625 19.933594 56.136719 34.753906 53.550781 L 34.753906 264.273438 C 26.132812 265.351562 17.328125 268.796875 11.007812 274.875 C 10.996094 267.394531 10.988281 133.246094 10.988281 133.246094 C 10.988281 126.140625 0 126.140625 0 133.246094 L 0 303.871094 C 0 304.179688 0.03125 304.480469 0.0820312 304.777344 C 0.621094 320.886719 15.527344 332.929688 35.191406 332.929688 C 44.714844 332.929688 53.230469 330.21875 59.503906 325.753906 L 59.507812 345.949219 C 59.511719 364.511719 78.074219 375 94.707031 375 C 112.355469 374.996094 129.894531 365.054688 129.894531 345.9375 L 129.878906 268.273438 L 286.316406 268.273438 L 172.328125 365.324219 C 168.519531 368.570312 170.886719 375 175.890625 375 L 341.320312 375 C 344.355469 375 346.816406 372.539062 346.816406 369.507812 L 346.816406 342.859375 C 346.816406 335.757812 335.828125 335.757812 335.828125 342.859375 L 335.828125 364.011719 L 190.816406 364.011719 L 335.828125 240.550781 L 335.828125 312.554688 C 335.828125 319.65625 346.816406 319.65625 346.816406 312.554688 L 346.816406 268.273438 L 369.507812 268.273438 C 372.542969 268.273438 375 265.816406 375 262.78125 L 375 41.886719 C 375 38.855469 372.542969 36.394531 369.507812 36.394531 Z M 364.011719 47.382812 L 364.011719 180.613281 L 235.363281 180.613281 L 235.363281 47.382812 Z M 187.328125 10.984375 L 187.328125 151.570312 L 164.042969 151.570312 L 164.042969 137.53125 L 168.03125 137.53125 C 175.132812 137.53125 175.132812 126.546875 168.03125 126.546875 L 164.042969 126.546875 L 164.042969 112.152344 L 173.15625 112.152344 C 180.257812 112.152344 180.257812 101.164062 173.15625 101.164062 L 164.042969 101.164062 L 164.042969 86.773438 L 168.03125 86.773438 C 171.0625 86.773438 173.523438 84.3125 173.523438 81.277344 C 173.523438 78.246094 171.0625 75.785156 168.03125 75.785156 L 164.042969 75.785156 L 164.042969 61.390625 L 173.15625 61.390625 C 180.257812 61.390625 180.257812 50.40625 173.15625 50.40625 L 164.042969 50.40625 L 164.042969 36.011719 L 168.03125 36.011719 C 175.132812 36.011719 175.132812 25.023438 168.03125 25.023438 L 164.042969 25.023438 L 164.042969 10.988281 Z M 86.761719 97.984375 C 89.132812 96.859375 91.621094 96.074219 94.222656 95.621094 L 94.257812 306.34375 C 88.136719 307.109375 78.246094 309.511719 70.511719 316.949219 C 70.5 309.570312 70.488281 303.859375 70.488281 303.703125 L 70.460938 123.113281 C 70.457031 113.269531 76.457031 102.859375 86.761719 97.984375 Z M 118.90625 329.910156 C 118.71875 329.800781 118.53125 329.699219 118.34375 329.59375 C 112.042969 326.136719 103.816406 324.207031 95.136719 324.144531 L 95.132812 317.316406 C 97.765625 316.953125 99.535156 316.980469 99.578125 316.980469 C 103.015625 316.75 104.90625 314.917969 105.242188 311.488281 L 105.210938 112.855469 C 112.492188 114.65625 118.871094 118.347656 118.871094 122.433594 Z M 59.398438 80.367188 L 59.398438 287.769531 C 53.277344 284.253906 45.007812 282.136719 35.628906 282.074219 L 35.628906 275.242188 C 38.265625 274.882812 40.03125 274.910156 40.074219 274.910156 C 43.511719 274.679688 45.402344 272.851562 45.742188 269.417969 L 45.742188 70.75 C 54.109375 72.753906 59.398438 76.910156 59.398438 80.367188 Z M 59.398438 306.472656 C 59.398438 314.859375 48.3125 321.941406 35.191406 321.941406 C 21.425781 321.941406 11.042969 314.175781 11.042969 303.871094 C 11.042969 293.441406 14.824219 283.558594 24.644531 278.570312 L 24.644531 287.804688 C 25.035156 291.398438 27.039062 293.222656 30.652344 293.273438 C 38.285156 292.554688 46.722656 293.410156 53.550781 297.15625 C 57.488281 299.320312 59.71875 302.066406 59.398438 306.472656 Z M 94.703125 364.011719 C 94.703125 364.011719 94.703125 364.011719 94.699219 364.011719 C 80.933594 364.011719 70.550781 356.246094 70.550781 345.949219 C 70.546875 335.515625 74.328125 325.632812 84.148438 320.640625 L 84.148438 329.878906 C 84.542969 333.46875 86.546875 335.292969 90.160156 335.34375 C 99.476562 334.46875 119.355469 335.964844 118.90625 348.539062 C 118.910156 356.925781 107.824219 364.011719 94.703125 364.011719 Z M 129.859375 122.429688 C 129.855469 112.542969 119.914062 104.316406 105.210938 101.589844 L 105.207031 89.660156 C 104.894531 86.3125 103.0625 84.480469 99.714844 84.167969 C 96.910156 84.167969 94.09375 84.488281 91.324219 85.089844 L 91.324219 47.382812 L 153.054688 47.382812 L 153.054688 157.0625 C 153.054688 160.097656 155.515625 162.558594 158.546875 162.558594 L 192.820312 162.558594 C 195.855469 162.558594 198.3125 160.097656 198.3125 157.0625 L 198.3125 47.382812 L 224.375 47.382812 L 224.375 257.289062 L 129.878906 257.289062 Z M 343.625 223.671875 C 341.679688 222.773438 339.390625 223.085938 337.761719 224.476562 L 299.222656 257.289062 L 235.363281 257.289062 L 235.363281 191.601562 L 364.011719 191.601562 L 364.011719 257.289062 L 346.816406 257.289062 L 346.816406 228.660156 C 346.816406 226.515625 345.570312 224.570312 343.625 223.671875 Z M 343.625 223.671875 "/>
<path style=" stroke:none;fill-rule:nonzero;fill:rgb(0.779724%,68.238831%,88.62915%);fill-opacity:1;" d="M 261.722656 157.410156 L 312.335938 157.410156 C 313.785156 157.410156 315.207031 156.816406 316.226562 155.792969 L 341.535156 130.507812 C 342.566406 129.476562 343.144531 128.078125 343.144531 126.621094 L 343.136719 76.078125 C 343.136719 73.109375 340.617188 70.585938 337.644531 70.585938 L 287.023438 70.59375 C 285.566406 70.59375 284.171875 71.171875 283.140625 72.199219 L 257.84375 97.476562 C 256.824219 98.496094 256.230469 99.925781 256.230469 101.367188 L 256.230469 151.917969 C 256.230469 154.953125 258.691406 157.410156 261.722656 157.410156 Z M 267.214844 106.859375 L 306.84375 106.859375 L 306.84375 146.421875 L 267.214844 146.421875 Z M 317.832031 138.664062 L 317.832031 103.644531 L 332.15625 89.332031 L 332.160156 124.347656 Z M 289.300781 81.578125 L 324.375 81.574219 L 310.0625 95.875 L 274.992188 95.875 Z M 289.300781 81.578125 "/>
<path style=" stroke:none;fill-rule:nonzero;fill:rgb(0.779724%,68.238831%,88.62915%);fill-opacity:1;" d="M 287.703125 230.042969 L 269.503906 230.042969 C 262.402344 230.042969 262.402344 241.03125 269.503906 241.03125 L 287.703125 241.03125 C 294.808594 241.03125 294.808594 230.042969 287.703125 230.042969 Z M 287.703125 230.042969 "/>
<path style=" stroke:none;fill-rule:nonzero;fill:rgb(0.779724%,68.238831%,88.62915%);fill-opacity:1;" d="M 316.140625 208.183594 L 269.503906 208.183594 C 262.402344 208.183594 262.402344 219.171875 269.503906 219.171875 L 316.140625 219.171875 C 323.242188 219.171875 323.242188 208.183594 316.140625 208.183594 Z M 316.140625 208.183594 "/>
<path style=" stroke:none;fill-rule:nonzero;fill:rgb(0.779724%,68.238831%,88.62915%);fill-opacity:1;" d="M 311.078125 282.207031 L 244.753906 338.675781 C 240.945312 341.921875 243.3125 348.351562 248.316406 348.351562 L 314.640625 348.351562 C 317.675781 348.351562 320.132812 345.894531 320.132812 342.859375 L 320.132812 286.390625 C 320.132812 282.214844 314.859375 278.988281 311.078125 282.207031 Z M 309.148438 337.367188 L 263.242188 337.367188 L 309.148438 298.28125 Z M 309.148438 337.367188 "/>
</g>
</svg>
