<?xml version="1.0" encoding="UTF-8"?>
<svg xmlns="http://www.w3.org/2000/svg" xmlns:xlink="http://www.w3.org/1999/xlink" width="375pt" height="374.999991pt" viewBox="0 0 375 374.999991" version="1.2">
<g id="surface1">
<path style=" stroke:none;fill-rule:nonzero;fill:rgb(0.779724%,68.238831%,88.62915%);fill-opacity:1;" d="M 232.925781 236.957031 L 220.570312 236.957031 L 220.570312 230.78125 C 220.570312 223.957031 215.039062 218.425781 208.214844 218.425781 L 195.859375 218.425781 L 195.859375 162.515625 C 240.078125 159.105469 273.160156 120.492188 269.75 76.273438 C 266.339844 32.054688 227.726562 -1.027344 183.507812 2.386719 C 139.289062 5.796875 106.207031 44.410156 109.617188 88.628906 C 112.664062 128.105469 144.03125 159.472656 183.507812 162.515625 L 183.507812 218.425781 L 164.976562 218.425781 C 163.335938 218.425781 161.765625 219.078125 160.609375 220.238281 L 109.378906 271.464844 L 109.378906 267.84375 C 109.378906 264.433594 106.613281 261.667969 103.203125 261.667969 L 90.847656 261.667969 L 90.847656 255.488281 C 90.847656 252.078125 88.082031 249.3125 84.671875 249.3125 L 72.316406 249.3125 L 72.316406 236.644531 C 106.261719 233.230469 131.011719 202.949219 127.601562 169.003906 C 124.191406 135.058594 93.90625 110.308594 59.960938 113.71875 C 26.019531 117.128906 1.265625 147.414062 4.675781 181.359375 C 7.613281 210.589844 30.730469 233.707031 59.960938 236.644531 L 59.960938 249.3125 L 35.253906 249.3125 C 33.613281 249.3125 32.042969 249.964844 30.886719 251.121094 L 0 282.007812 L 8.734375 290.742188 L 37.8125 261.667969 L 78.492188 261.667969 L 78.492188 286.375 L 66.140625 286.375 L 66.140625 274.023438 L 53.785156 274.023438 L 53.785156 327.058594 L 30.886719 349.957031 C 29.726562 351.117188 29.074219 352.6875 29.074219 354.324219 L 29.074219 366.679688 C 29.074219 370.089844 31.84375 372.855469 35.253906 372.855469 L 134.089844 372.855469 C 135.726562 372.855469 137.296875 372.203125 138.457031 371.046875 L 161.355469 348.148438 L 232.925781 348.148438 C 243.160156 348.148438 251.457031 339.851562 251.457031 329.617188 L 251.457031 255.488281 C 251.457031 245.253906 243.160156 236.957031 232.925781 236.957031 Z M 16.722656 175.1875 C 16.722656 147.894531 38.847656 125.769531 66.140625 125.769531 C 93.433594 125.769531 115.558594 147.894531 115.558594 175.1875 C 115.558594 202.476562 93.433594 224.601562 66.140625 224.601562 C 38.859375 224.574219 16.753906 202.464844 16.722656 175.1875 Z M 121.734375 82.527344 C 121.734375 45 152.15625 14.578125 189.683594 14.578125 C 227.210938 14.578125 257.632812 45 257.632812 82.527344 C 257.632812 120.054688 227.210938 150.476562 189.683594 150.476562 C 152.175781 150.433594 121.777344 120.039062 121.734375 82.527344 Z M 90.847656 274.019531 L 97.027344 274.019531 L 97.027344 283.816406 L 90.847656 289.996094 Z M 66.140625 298.730469 L 82.113281 298.730469 L 66.140625 314.703125 Z M 131.53125 360.503906 L 41.429688 360.503906 L 41.429688 356.882812 L 103.203125 295.109375 L 150.0625 341.96875 Z M 183.507812 335.792969 L 161.355469 335.792969 L 111.9375 286.375 L 167.53125 230.78125 L 208.214844 230.78125 L 208.214844 286.375 L 195.859375 286.375 L 195.859375 261.667969 L 183.507812 261.667969 Z M 239.101562 329.617188 C 239.101562 333.027344 236.335938 335.792969 232.925781 335.792969 L 195.859375 335.792969 L 195.859375 323.4375 L 239.101562 323.4375 Z M 239.101562 311.085938 L 195.859375 311.085938 L 195.859375 298.730469 L 239.101562 298.730469 Z M 239.101562 286.375 L 220.570312 286.375 L 220.570312 274.019531 L 239.101562 274.019531 Z M 239.101562 261.667969 L 220.570312 261.667969 L 220.570312 249.3125 L 232.925781 249.3125 C 236.335938 249.3125 239.101562 252.078125 239.101562 255.488281 Z M 239.101562 261.667969 "/>
<path style=" stroke:none;fill-rule:nonzero;fill:rgb(0.779724%,68.238831%,88.62915%);fill-opacity:1;" d="M 222.378906 41.097656 L 164.976562 98.5 L 144.632812 78.160156 L 135.898438 86.894531 L 160.609375 111.605469 C 163.019531 114.015625 166.929688 114.015625 169.34375 111.605469 L 231.113281 49.832031 Z M 222.378906 41.097656 "/>
<path style=" stroke:none;fill-rule:nonzero;fill:rgb(0.779724%,68.238831%,88.62915%);fill-opacity:1;" d="M 337.9375 255.488281 L 319.40625 255.488281 L 319.40625 242.820312 C 350.949219 239.613281 374.960938 213.070312 375 181.363281 C 375.003906 147.246094 347.347656 119.589844 313.234375 119.585938 C 279.117188 119.582031 251.457031 147.234375 251.457031 181.351562 C 251.453125 213.078125 275.484375 239.648438 307.050781 242.820312 L 307.050781 255.488281 C 300.226562 255.488281 294.695312 261.019531 294.695312 267.84375 L 294.695312 274.019531 L 282.34375 274.019531 C 272.105469 274.019531 263.808594 282.316406 263.808594 292.550781 L 263.808594 372.855469 L 276.164062 372.855469 L 276.164062 360.503906 L 319.40625 360.503906 L 319.40625 372.855469 L 331.757812 372.855469 L 331.757812 286.375 L 319.40625 286.375 L 319.40625 298.730469 L 307.050781 298.730469 L 307.050781 267.84375 L 335.378906 267.84375 L 364.457031 296.921875 L 373.191406 288.183594 L 342.304688 257.300781 C 341.144531 256.140625 339.574219 255.492188 337.9375 255.488281 Z M 276.164062 292.550781 C 276.164062 289.140625 278.929688 286.375 282.34375 286.375 L 294.695312 286.375 L 294.695312 298.730469 L 276.164062 298.730469 Z M 319.40625 348.148438 L 276.164062 348.148438 L 276.164062 335.792969 L 319.40625 335.792969 Z M 319.40625 311.085938 L 319.40625 323.4375 L 276.164062 323.4375 L 276.164062 311.085938 Z M 263.808594 181.363281 C 263.808594 154.070312 285.933594 131.945312 313.226562 131.945312 C 340.519531 131.945312 362.644531 154.070312 362.644531 181.363281 C 362.644531 208.65625 340.519531 230.78125 313.226562 230.78125 C 285.949219 230.75 263.839844 208.644531 263.808594 181.363281 Z M 263.808594 181.363281 "/>
<path style=" stroke:none;fill-rule:nonzero;fill:rgb(0.779724%,68.238831%,88.62915%);fill-opacity:1;" d="M 294.695312 191.160156 L 280.53125 176.996094 L 271.796875 185.730469 L 290.328125 204.261719 C 292.742188 206.671875 296.652344 206.671875 299.0625 204.261719 L 345.394531 157.933594 L 336.65625 149.199219 Z M 294.695312 191.160156 "/>
<path style=" stroke:none;fill-rule:nonzero;fill:rgb(0.779724%,68.238831%,88.62915%);fill-opacity:1;" d="M 47.609375 184.984375 L 33.445312 170.820312 L 24.707031 179.554688 L 43.242188 198.085938 C 45.652344 200.496094 49.5625 200.496094 51.976562 198.085938 L 98.304688 151.753906 L 89.570312 143.019531 Z M 47.609375 184.984375 "/>
</g>
</svg>
