<?xml version="1.0" encoding="UTF-8"?>
<svg xmlns="http://www.w3.org/2000/svg" xmlns:xlink="http://www.w3.org/1999/xlink" width="375pt" height="374.999991pt" viewBox="0 0 375 374.999991" version="1.2">
<g id="surface1">
<path style=" stroke:none;fill-rule:nonzero;fill:rgb(0.779724%,68.238831%,88.62915%);fill-opacity:1;" d="M 133.976562 193.878906 C 104.867188 193.878906 81.183594 217.5625 81.183594 246.671875 C 81.183594 275.78125 104.867188 299.464844 133.976562 299.464844 C 163.085938 299.464844 186.769531 275.78125 186.769531 246.671875 C 186.769531 236.09375 183.648438 225.882812 177.75 217.152344 C 176.214844 214.878906 173.132812 214.28125 170.859375 215.816406 C 168.589844 217.351562 167.992188 220.433594 169.527344 222.707031 C 174.316406 229.792969 176.847656 238.078125 176.847656 246.671875 C 176.847656 270.308594 157.613281 289.539062 133.976562 289.539062 C 110.339844 289.539062 91.109375 270.308594 91.109375 246.671875 C 91.109375 223.035156 110.339844 203.800781 133.976562 203.800781 C 136.714844 203.800781 138.9375 201.582031 138.9375 198.839844 C 138.9375 196.101562 136.714844 193.878906 133.976562 193.878906 Z M 133.976562 193.878906 "/>
<path style=" stroke:none;fill-rule:nonzero;fill:rgb(0.779724%,68.238831%,88.62915%);fill-opacity:1;" d="M 225.695312 293.746094 L 212.722656 280.769531 C 211.554688 279.605469 211.238281 277.804688 211.878906 276.261719 C 211.890625 276.234375 211.953125 276.089844 211.960938 276.0625 C 212.632812 274.445312 214.128906 273.402344 215.773438 273.402344 L 234.125 273.402344 C 236.863281 273.402344 239.085938 271.179688 239.085938 268.441406 L 239.085938 219.234375 C 239.085938 216.492188 236.863281 214.273438 234.125 214.273438 L 215.773438 214.273438 C 214.128906 214.273438 212.632812 213.226562 211.910156 211.492188 C 211.238281 209.871094 211.554688 208.070312 212.722656 206.902344 L 225.695312 193.925781 C 227.632812 191.988281 227.632812 188.847656 225.695312 186.910156 L 190.902344 152.117188 C 188.964844 150.179688 185.824219 150.179688 183.882812 152.117188 C 181.945312 154.054688 181.945312 157.195312 183.882812 159.132812 L 215.171875 190.417969 L 205.703125 199.882812 C 201.6875 203.902344 200.527344 209.953125 202.796875 215.410156 C 205.003906 220.746094 210.097656 224.195312 215.773438 224.195312 L 229.160156 224.195312 L 229.160156 263.480469 L 215.773438 263.480469 C 210.097656 263.480469 205.003906 266.929688 202.832031 272.179688 C 202.820312 272.207031 202.761719 272.347656 202.75 272.375 C 200.523438 277.71875 201.683594 283.773438 205.707031 287.789062 L 215.171875 297.253906 L 187.394531 325.035156 L 177.925781 315.566406 C 173.90625 311.546875 167.855469 310.386719 162.40625 312.65625 C 157.066406 314.867188 153.617188 319.960938 153.617188 325.636719 L 153.617188 339.023438 L 114.332031 339.023438 L 114.332031 325.632812 C 114.332031 319.960938 110.886719 314.867188 105.441406 312.613281 C 100.09375 310.386719 94.042969 311.546875 90.023438 315.566406 L 80.558594 325.03125 L 52.78125 297.253906 L 62.246094 287.789062 C 66.265625 283.769531 67.425781 277.714844 65.15625 272.265625 C 62.945312 266.929688 57.851562 263.476562 52.175781 263.476562 L 38.789062 263.476562 L 38.789062 224.195312 L 52.179688 224.195312 C 57.851562 224.195312 62.945312 220.746094 65.203125 215.300781 C 67.425781 209.953125 66.265625 203.902344 62.246094 199.882812 L 52.78125 190.417969 L 80.558594 162.640625 L 90.023438 172.105469 C 94.042969 176.125 100.09375 177.285156 105.546875 175.015625 C 110.886719 172.804688 114.332031 167.710938 114.332031 162.039062 L 114.332031 148.652344 L 153.617188 148.652344 L 153.617188 162.039062 C 153.617188 167.710938 157.066406 172.808594 162.402344 175.015625 C 164.191406 175.757812 165.980469 176.582031 167.71875 177.46875 C 170.15625 178.710938 173.144531 177.742188 174.390625 175.300781 C 175.632812 172.859375 174.664062 169.871094 172.222656 168.625 C 170.253906 167.625 168.230469 166.691406 166.199219 165.847656 C 164.582031 165.179688 163.539062 163.683594 163.539062 162.039062 L 163.539062 143.6875 C 163.539062 140.945312 161.316406 138.726562 158.578125 138.726562 L 109.371094 138.726562 C 106.632812 138.726562 104.410156 140.945312 104.410156 143.6875 L 104.410156 162.039062 C 104.410156 163.683594 103.367188 165.179688 101.628906 165.898438 C 100.007812 166.574219 98.207031 166.257812 97.042969 165.089844 L 84.066406 152.113281 C 82.128906 150.179688 78.988281 150.179688 77.050781 152.113281 L 42.253906 186.910156 C 40.316406 188.847656 40.316406 191.988281 42.253906 193.925781 L 55.230469 206.898438 C 56.398438 208.066406 56.714844 209.867188 56.054688 211.449219 C 56.050781 211.464844 55.996094 211.59375 55.988281 211.609375 C 55.320312 213.226562 53.824219 214.269531 52.179688 214.269531 L 33.828125 214.269531 C 31.089844 214.269531 28.867188 216.492188 28.867188 219.234375 L 28.867188 268.441406 C 28.867188 271.179688 31.089844 273.402344 33.828125 273.402344 L 52.179688 273.402344 C 53.824219 273.402344 55.320312 274.445312 56.039062 276.183594 C 56.714844 277.804688 56.398438 279.605469 55.230469 280.769531 L 42.253906 293.746094 C 40.316406 295.683594 40.316406 298.824219 42.253906 300.765625 L 77.050781 335.558594 C 78.988281 337.496094 82.128906 337.496094 84.066406 335.558594 L 97.042969 322.582031 C 98.207031 321.414062 100.007812 321.101562 101.589844 321.757812 C 101.605469 321.761719 101.734375 321.816406 101.75 321.824219 C 103.367188 322.492188 104.410156 323.988281 104.410156 325.632812 L 104.410156 343.984375 C 104.410156 346.726562 106.632812 348.945312 109.375 348.945312 L 158.578125 348.945312 C 161.320312 348.945312 163.542969 346.726562 163.542969 343.984375 L 163.542969 325.632812 C 163.542969 323.988281 164.585938 322.492188 166.144531 321.84375 C 166.167969 321.835938 166.304688 321.78125 166.324219 321.773438 C 167.945312 321.097656 169.746094 321.417969 170.910156 322.582031 L 183.886719 335.554688 C 184.816406 336.488281 186.078125 337.007812 187.394531 337.007812 C 188.710938 337.007812 189.972656 336.488281 190.902344 335.558594 L 225.695312 300.761719 C 227.632812 298.824219 227.632812 295.683594 225.695312 293.746094 Z M 225.695312 293.746094 "/>
<path style=" stroke:none;fill-rule:nonzero;fill:rgb(0.779724%,68.238831%,88.62915%);fill-opacity:1;" d="M 276.800781 228.886719 C 276.800781 246.5 291.132812 260.832031 308.746094 260.832031 C 326.363281 260.832031 340.695312 246.5 340.695312 228.886719 C 340.695312 211.269531 326.363281 196.9375 308.746094 196.9375 C 291.132812 196.9375 276.800781 211.269531 276.800781 228.886719 Z M 330.769531 228.886719 C 330.769531 241.03125 320.890625 250.910156 308.746094 250.910156 C 296.605469 250.910156 286.722656 241.03125 286.722656 228.886719 C 286.722656 216.742188 296.605469 206.863281 308.746094 206.863281 C 320.890625 206.863281 330.769531 216.742188 330.769531 228.886719 Z M 330.769531 228.886719 "/>
<path style=" stroke:none;fill-rule:nonzero;fill:rgb(0.779724%,68.238831%,88.62915%);fill-opacity:1;" d="M 341.171875 325.039062 C 343.910156 325.039062 346.132812 322.816406 346.132812 320.078125 L 346.132812 307.648438 C 346.132812 287.035156 329.363281 270.265625 308.746094 270.265625 C 288.132812 270.265625 271.363281 287.035156 271.363281 307.648438 L 271.363281 339.597656 L 210.957031 339.597656 C 208.21875 339.597656 205.996094 341.820312 205.996094 344.558594 C 205.996094 347.300781 208.21875 349.519531 210.957031 349.519531 L 276.085938 349.519531 C 276.164062 349.523438 276.242188 349.542969 276.324219 349.542969 L 341.171875 349.542969 C 343.910156 349.542969 346.132812 347.324219 346.132812 344.582031 C 346.132812 341.84375 343.910156 339.621094 341.171875 339.621094 L 281.285156 339.621094 L 281.285156 307.648438 C 281.285156 292.507812 293.605469 280.1875 308.746094 280.1875 C 323.890625 280.1875 336.210938 292.507812 336.210938 307.648438 L 336.210938 320.078125 C 336.210938 322.816406 338.429688 325.039062 341.171875 325.039062 Z M 341.171875 325.039062 "/>
<path style=" stroke:none;fill-rule:nonzero;fill:rgb(0.779724%,68.238831%,88.62915%);fill-opacity:1;" d="M 68.5625 135.625 C 71.300781 135.625 73.523438 133.402344 73.523438 130.664062 L 73.523438 47.234375 L 106.433594 47.234375 C 109.171875 47.234375 111.394531 45.011719 111.394531 42.273438 C 111.394531 39.53125 109.171875 37.3125 106.433594 37.3125 L 68.5625 37.3125 C 65.820312 37.3125 63.601562 39.53125 63.601562 42.273438 L 63.601562 130.664062 C 63.601562 133.402344 65.820312 135.625 68.5625 135.625 Z M 68.5625 135.625 "/>
<path style=" stroke:none;fill-rule:nonzero;fill:rgb(0.779724%,68.238831%,88.62915%);fill-opacity:1;" d="M 274.984375 47.234375 L 308.625 47.234375 L 308.625 167.304688 C 308.625 170.046875 310.847656 172.265625 313.585938 172.265625 C 316.324219 172.265625 318.546875 170.042969 318.546875 167.304688 L 318.546875 42.273438 C 318.546875 39.53125 316.324219 37.3125 313.585938 37.3125 L 274.984375 37.3125 C 272.242188 37.3125 270.023438 39.53125 270.023438 42.273438 C 270.023438 45.011719 272.242188 47.234375 274.984375 47.234375 Z M 274.984375 47.234375 "/>
<path style=" stroke:none;fill-rule:nonzero;fill:rgb(0.779724%,68.238831%,88.62915%);fill-opacity:1;" d="M 135.773438 68.601562 L 246.375 68.601562 C 249.113281 68.601562 251.335938 66.378906 251.335938 63.640625 L 251.335938 30.414062 C 251.335938 27.675781 249.113281 25.453125 246.375 25.453125 L 135.773438 25.453125 C 133.035156 25.453125 130.8125 27.675781 130.8125 30.414062 L 130.8125 63.640625 C 130.8125 66.378906 133.035156 68.601562 135.773438 68.601562 Z M 140.734375 35.378906 L 241.410156 35.378906 L 241.410156 58.679688 L 140.734375 58.679688 Z M 140.734375 35.378906 "/>
<path style=" stroke:none;fill-rule:nonzero;fill:rgb(0.779724%,68.238831%,88.62915%);fill-opacity:1;" d="M 133.976562 214.574219 C 131.234375 214.574219 129.015625 216.792969 129.015625 219.535156 L 129.015625 246.671875 C 129.015625 249.410156 131.234375 251.632812 133.976562 251.632812 L 152.078125 251.632812 C 154.816406 251.632812 157.039062 249.410156 157.039062 246.671875 C 157.039062 243.929688 154.816406 241.710938 152.078125 241.710938 L 138.9375 241.710938 L 138.9375 219.535156 C 138.9375 216.792969 136.714844 214.574219 133.976562 214.574219 Z M 133.976562 214.574219 "/>
<path style=" stroke:none;fill-rule:nonzero;fill:rgb(0.779724%,68.238831%,88.62915%);fill-opacity:1;" d="M 123.523438 107.648438 L 235.539062 107.648438 C 238.28125 107.648438 240.5 105.429688 240.5 102.6875 C 240.5 99.949219 238.28125 97.726562 235.539062 97.726562 L 123.523438 97.726562 C 120.785156 97.726562 118.5625 99.949219 118.5625 102.6875 C 118.5625 105.425781 120.785156 107.648438 123.523438 107.648438 Z M 123.523438 107.648438 "/>
<path style=" stroke:none;fill-rule:nonzero;fill:rgb(0.779724%,68.238831%,88.62915%);fill-opacity:1;" d="M 235.542969 137.769531 L 212.789062 137.769531 C 210.050781 137.769531 207.828125 139.992188 207.828125 142.730469 C 207.828125 145.46875 210.050781 147.691406 212.789062 147.691406 L 235.542969 147.691406 C 238.28125 147.691406 240.503906 145.46875 240.503906 142.730469 C 240.503906 139.992188 238.28125 137.769531 235.542969 137.769531 Z M 235.542969 137.769531 "/>
<path style=" stroke:none;fill-rule:nonzero;fill:rgb(0.779724%,68.238831%,88.62915%);fill-opacity:1;" d="M 265.378906 113.222656 C 266.347656 114.191406 267.617188 114.675781 268.886719 114.675781 C 270.15625 114.675781 271.429688 114.191406 272.394531 113.222656 L 286.449219 99.167969 C 288.390625 97.230469 288.390625 94.089844 286.449219 92.152344 C 284.511719 90.214844 281.371094 90.214844 279.433594 92.152344 L 268.886719 102.699219 L 264.707031 98.519531 C 262.769531 96.582031 259.628906 96.582031 257.691406 98.519531 C 255.753906 100.457031 255.753906 103.601562 257.691406 105.539062 Z M 265.378906 113.222656 "/>
<path style=" stroke:none;fill-rule:nonzero;fill:rgb(0.779724%,68.238831%,88.62915%);fill-opacity:1;" d="M 265.378906 153.265625 C 266.347656 154.234375 267.617188 154.71875 268.886719 154.71875 C 270.15625 154.71875 271.429688 154.234375 272.394531 153.265625 L 286.449219 139.210938 C 288.390625 137.273438 288.390625 134.132812 286.449219 132.195312 C 284.511719 130.257812 281.371094 130.257812 279.433594 132.195312 L 268.886719 142.742188 L 264.707031 138.5625 C 262.769531 136.625 259.628906 136.625 257.691406 138.5625 C 255.753906 140.5 255.753906 143.644531 257.691406 145.582031 Z M 265.378906 153.265625 "/>
</g>
</svg>
